<?xml version="1.0" standalone="no"?><!DOCTYPE svg PUBLIC "-//W3C//DTD SVG 1.1//EN" "http://www.w3.org/Graphics/SVG/1.1/DTD/svg11.dtd"><svg t="1548134247785" class="icon" style="" viewBox="0 0 1024 1024" version="1.1" xmlns="http://www.w3.org/2000/svg" p-id="3217" xmlns:xlink="http://www.w3.org/1999/xlink" width="200" height="200"><defs><style type="text/css"></style></defs><path d="M807 703.5H651.3c-9.6 0-17.3-7.7-17.3-17.3 0-9.5 7.7-17.3 17.3-17.3H807c9.6 0 17.3 7.7 17.3 17.3-0.1 9.6-7.8 17.3-17.3 17.3zM807 573.8H651.3c-9.6 0-17.3-7.7-17.3-17.3s7.7-17.3 17.3-17.3H807c9.6 0 17.3 7.7 17.3 17.3s-7.8 17.3-17.3 17.3zM807 444.1H651.3c-9.6 0-17.3-7.7-17.3-17.3s7.7-17.3 17.3-17.3H807c9.6 0 17.3 7.7 17.3 17.3s-7.8 17.3-17.3 17.3zM426.5 478.7H253.6c-9.6 0-17.3-7.7-17.3-17.3 0-9.5 7.7-17.3 17.3-17.3h172.9c9.6 0 17.3 7.7 17.3 17.3 0 9.6-7.7 17.3-17.3 17.3zM426.5 323.1H253.6c-9.6 0-17.3-7.7-17.3-17.3 0-9.5 7.7-17.3 17.3-17.3h172.9c9.6 0 17.3 7.7 17.3 17.3 0 9.6-7.7 17.3-17.3 17.3zM443.8 911h-34.6V686.2c0-9.5-7.8-17.3-17.3-17.3H288.2c-9.5 0-17.3 7.8-17.3 17.3V911h-34.6V686.2c0-28.6 23.3-51.9 51.9-51.9H392c28.6 0 51.9 23.3 51.9 51.9V911z" fill="#dbdbdb" p-id="3218"></path><path d="M910.7 928.3H564.9v-34.6h328.5V366.3c0-28.6-23.3-51.9-51.9-51.9H564.9v-34.6h276.7c47.7 0 86.5 38.8 86.5 86.5V911c-0.1 9.6-7.8 17.3-17.4 17.3z" fill="#dbdbdb" p-id="3219"></path><path d="M564.9 928.3H115.3c-9.6 0-17.3-7.7-17.3-17.3V184.6c0-47.7 38.8-86.5 86.5-86.5h311.2c47.7 0 86.5 38.8 86.5 86.5V911c0 9.6-7.8 17.3-17.3 17.3z m-432.3-34.6h415V184.6c0-28.6-23.3-51.9-51.9-51.9H184.5c-28.6 0-51.9 23.3-51.9 51.9v709.1z" fill="#dbdbdb" p-id="3220"></path></svg>