<?xml version="1.0" standalone="no"?><!DOCTYPE svg PUBLIC "-//W3C//DTD SVG 1.1//EN" "http://www.w3.org/Graphics/SVG/1.1/DTD/svg11.dtd"><svg t="1548134362188" class="icon" style="" viewBox="0 0 1024 1024" version="1.1" xmlns="http://www.w3.org/2000/svg" p-id="1950" xmlns:xlink="http://www.w3.org/1999/xlink" width="200" height="200"><defs><style type="text/css"></style></defs><path d="M511.1 716.6c-10.1-0.3-18-9-18-19.1V493.3c0-10.1 7.9-18.8 18-19.1 10.6-0.3 19.3 8.1 19.3 18.6v205.1c0 10.6-8.7 19-19.3 18.7z" fill="#dbdbdb" p-id="1951"></path><path d="M623.7 604.7H400.4c-10.1 0-18.8-7.9-19.1-18-0.3-10.6 8.1-19.3 18.6-19.3h223.3c10.1 0 18.8 7.9 19.1 18 0.3 10.6-8.1 19.3-18.6 19.3zM623.7 492.8H400.4c-10.1 0-18.8-7.9-19.1-18-0.3-10.6 8.1-19.3 18.6-19.3h223.3c10.1 0 18.8 7.9 19.1 18 0.3 10.6-8.1 19.3-18.6 19.3z" fill="#dbdbdb" p-id="1952"></path><path d="M511.8 492.8c-3.5 0-7-1-10.2-3-8.5-5.5-10.7-17-5.5-25.6l111.6-186.1c5.3-8.8 16.7-11.7 25.6-6.4 8.8 5.3 11.7 16.8 6.4 25.6L527.8 483.8c-3.5 5.8-9.7 9-16 9zM467 407.1c-6 0-11.9-2.9-15.5-8.3L384.1 298c-5.7-8.6-3.4-20.1 5.2-25.9 8.6-5.7 20.1-3.4 25.9 5.2L482.6 378c5.7 8.6 3.4 20.1-5.2 25.9-3.2 2.1-6.8 3.2-10.4 3.2z" fill="#dbdbdb" p-id="1953"></path><path d="M511.8 101.2c251.8 0 451.4 228.1 403 488.5-27.9 150-174.7 296.8-324.7 324.7-260.5 48.4-488.5-151.1-488.5-403-0.1-226.2 184-410.2 410.2-410.2m0-37.3c-275 0-492 248-439.7 532.5C102.2 760.6 262.6 921 426.8 951.2c284.5 52.3 532.5-164.8 532.5-439.7 0-247.2-200.3-447.6-447.5-447.6z" fill="#dbdbdb" p-id="1954"></path></svg>