<?xml version="1.0" standalone="no"?><!DOCTYPE svg PUBLIC "-//W3C//DTD SVG 1.1//EN" "http://www.w3.org/Graphics/SVG/1.1/DTD/svg11.dtd"><svg t="1548134891215" class="icon" style="" viewBox="0 0 1024 1024" version="1.1" xmlns="http://www.w3.org/2000/svg" p-id="4929" xmlns:xlink="http://www.w3.org/1999/xlink" width="200" height="200"><defs><style type="text/css"></style></defs><path d="M789.78 95.33h-83.34V39.78a27.78 27.78 0 1 0-55.56 0v55.55H373.11V39.78a27.78 27.78 0 1 0-55.56 0v55.55h-83.33a111.22 111.22 0 0 0-111.11 111.11v694.45A111.22 111.22 0 0 0 234.22 1012h555.56a111.22 111.22 0 0 0 111.11-111.11V206.44A111.22 111.22 0 0 0 789.78 95.33z m55.56 805.56a55.63 55.63 0 0 1-55.56 55.56H234.22a55.63 55.63 0 0 1-55.56-55.56V206.44a55.63 55.63 0 0 1 55.56-55.56h83.33v55.56a27.78 27.78 0 1 0 55.56 0v-55.55h277.78v55.56a27.78 27.78 0 1 0 55.56 0v-55.56h83.33a55.63 55.63 0 0 1 55.56 55.56z" p-id="4930" fill="#dbdbdb"></path><path d="M734.22 567.56H289.78a27.78 27.78 0 1 0 0 55.56h444.44a27.78 27.78 0 1 0 0-55.56zM734.22 400.89H289.78a27.78 27.78 0 1 0 0 55.56h444.44a27.78 27.78 0 1 0 0-55.56zM734.22 734.22H289.78a27.78 27.78 0 0 0 0 55.56h444.44a27.78 27.78 0 0 0 0-55.56z" p-id="4931" fill="#dbdbdb"></path></svg>