<?xml version="1.0" standalone="no"?><!DOCTYPE svg PUBLIC "-//W3C//DTD SVG 1.1//EN" "http://www.w3.org/Graphics/SVG/1.1/DTD/svg11.dtd"><svg t="1548134334424" class="icon" style="" viewBox="0 0 1024 1024" version="1.1" xmlns="http://www.w3.org/2000/svg" p-id="1500" xmlns:xlink="http://www.w3.org/1999/xlink" width="200" height="200"><defs><style type="text/css"></style></defs><path d="M84 883.5c-1.6 0-3.3-0.2-4.9-0.6-10.4-2.7-16.7-13.3-14-23.7 27.9-107.8 115.7-183 213.6-183 10.8 0 19.5 8.7 19.5 19.5s-8.7 19.5-19.5 19.5c-80.1 0-152.4 63.2-175.9 153.8-2.3 8.7-10.2 14.5-18.8 14.5z" fill="#e6e6e6" p-id="1501"></path><path d="M278.7 715.7C163 715.7 69 620.7 69 503.8c0-108.2 80.1-198.7 186.4-210.6 10.7-1.2 20.3 6.5 21.5 17.2 1.2 10.7-6.5 20.3-17.2 21.5-86.5 9.7-151.8 83.6-151.8 171.9 0 95.4 76.6 173 170.8 173 10.8 0 19.5 8.7 19.5 19.5s-8.8 19.4-19.5 19.4zM940.7 883.5c-8.7 0-16.6-5.8-18.8-14.6-23.4-90.5-95.7-153.8-175.9-153.8-10.8 0-19.5-8.7-19.5-19.5s8.7-19.5 19.5-19.5c97.9 0 185.7 75.2 213.6 182.9 2.7 10.4-3.6 21-14 23.7-1.7 0.6-3.3 0.8-4.9 0.8z" fill="#e6e6e6" p-id="1502"></path><path d="M746 715.7c-10.8 0-19.5-8.7-19.5-19.5s8.7-19.5 19.5-19.5c94.2 0 170.8-77.6 170.8-173 0-88.3-65.3-162.3-151.8-171.9-10.7-1.2-18.4-10.8-17.2-21.5 1.2-10.7 10.8-18.4 21.5-17.2C875.6 305 955.7 395.6 955.7 503.8c0 116.9-94.1 211.9-209.7 211.9zM778.3 902.7c-8.7 0-16.5-5.8-18.8-14.5-18.2-69.7-58.3-129.4-112.8-168.1-8.8-6.2-10.8-18.4-4.6-27.1 6.2-8.8 18.4-10.8 27.1-4.6 62 44 107.4 111.5 128 190 2.7 10.4-3.5 21-13.9 23.8-1.7 0.3-3.4 0.5-5 0.5z m-531.9-0.1c-1.6 0-3.3-0.2-4.9-0.6-10.4-2.7-16.6-13.4-13.9-23.8 35.6-135.8 143.3-232.8 268-241.3 10.5-0.7 20 7.4 20.7 18.1 0.7 10.7-7.4 20-18.1 20.7-108.1 7.3-201.7 92.7-233 212.3-2.3 8.8-10.2 14.6-18.8 14.6zM512.3 552.1c-11.3 0-22.6-1.2-33.5-3.6-21.3-4.7-41-13.6-58.7-26.6-4.3-3.2-5.3-9.3-2.1-13.6 3.2-4.3 9.3-5.3 13.6-2.1 15.4 11.3 32.7 19.1 51.3 23.2 18.7 4.1 38.6 4.2 57.4 0.3 5.8-1.2 11.5-2.8 17.1-4.8 33.7-11.8 62-37.1 77.6-69.4 2.3-4.8 8.1-6.8 13-4.5 4.8 2.3 6.9 8.2 4.5 13-17.8 36.8-50.1 65.7-88.7 79.2-6.4 2.2-13 4.1-19.5 5.4-10.4 2.4-21.2 3.5-32 3.5z" fill="#e6e6e6" p-id="1503"></path><path d="M512.3 676.1c-154 0-279.3-125.3-279.3-279.3s125.3-279.3 279.3-279.3 279.3 125.3 279.3 279.3-125.3 279.3-279.3 279.3z m0-519.7C379.8 156.4 272 264.3 272 396.8s107.8 240.4 240.4 240.4 240.4-107.8 240.4-240.4-107.9-240.4-240.5-240.4z" fill="#e6e6e6" p-id="1504"></path></svg>