<?xml version="1.0" standalone="no"?><!DOCTYPE svg PUBLIC "-//W3C//DTD SVG 1.1//EN" "http://www.w3.org/Graphics/SVG/1.1/DTD/svg11.dtd"><svg t="1547796469042" class="icon" style="" viewBox="0 0 1024 1024" version="1.1" xmlns="http://www.w3.org/2000/svg" p-id="4073" xmlns:xlink="http://www.w3.org/1999/xlink" width="200" height="200"><defs><style type="text/css"></style></defs><path d="M89.15968 508.00128c152.3712-152.3968 304.74752-304.768 457.1136-457.1392h-36.20352c152.47872 152.48384 304.95232 304.96768 457.42592 457.47712 23.36256 23.38304 59.56608-12.85632 36.1984-36.22912L546.26816 14.65856c-9.86112-9.86112-26.3424-9.86112-36.20352 0L52.94592 471.77728c-23.35744 23.36768 12.84608 59.60704 36.21376 36.224z" p-id="4074" fill="#dbdbdb"></path><path d="M829.88544 937.40032H225.94048c-29.96224 0-31.232-27.20256-31.232-49.00864v-367.68256c0-33.01888-51.2-33.01888-51.2 0v369.94048c0 31.02208 5.504 59.7504 31.6416 80.36352 19.6864 15.52896 42.0608 17.59232 65.7664 17.59232h588.96896c33.01376-0.00512 33.01376-51.20512 0-51.20512zM860.60544 520.704v312.17152c0 33.01376 51.2 33.01376 51.2 0V520.704c0-33.01888-51.2-33.01888-51.2 0z" p-id="4075" fill="#dbdbdb"></path><path d="M415.57504 602.5472H289.28l25.6 25.6V501.85216l-25.6 25.6h126.29504l-25.6-25.6v126.29504c0 33.01376 51.2 33.01376 51.2 0V501.85216c0-13.95712-11.64288-25.6-25.6-25.6H289.28c-13.95712 0-25.6 11.64288-25.6 25.6v126.29504c0 13.95712 11.64288 25.6 25.6 25.6h126.29504c33.01888 0 33.01888-51.2 0-51.2zM636.47744 826.89024H510.17728l25.6 25.6v-126.29504l-25.6 25.6h126.30016l-25.6-25.6v126.29504c0 33.01376 51.2 33.01376 51.2 0v-126.29504c0-13.95712-11.648-25.6-25.6-25.6H510.17728c-13.95712 0-25.6 11.64288-25.6 25.6v126.29504c0 13.95712 11.64288 25.6 25.6 25.6h126.30016c33.01376 0 33.01376-51.2 0-51.2zM415.57504 825.42592H289.28l25.6 25.6v-126.29504l-25.6 25.6h126.29504l-25.6-25.6v126.29504c0 33.01376 51.2 33.01376 51.2 0v-126.29504c0-13.95712-11.64288-25.6-25.6-25.6H289.28c-13.95712 0-25.6 11.64288-25.6 25.6v126.29504c0 13.95712 11.64288 25.6 25.6 25.6h126.29504c33.01888 0 33.01888-51.2 0-51.2z" p-id="4076" fill="#dbdbdb"></path></svg>