<?xml version="1.0" standalone="no"?><!DOCTYPE svg PUBLIC "-//W3C//DTD SVG 1.1//EN" "http://www.w3.org/Graphics/SVG/1.1/DTD/svg11.dtd"><svg t="1548134343480" class="icon" style="" viewBox="0 0 1024 1024" version="1.1" xmlns="http://www.w3.org/2000/svg" p-id="1666" xmlns:xlink="http://www.w3.org/1999/xlink" width="200" height="200"><defs><style type="text/css"></style></defs><path d="M816.7 959.2c-8.3 0-15.8-5.6-18-13.9-21.1-81-67.7-150.4-131.1-195.4-8.4-6-10.4-17.6-4.4-26 6-8.4 17.6-10.4 26-4.4 70.5 50.1 122.2 126.9 145.6 216.4 2.6 10-3.4 20.1-13.3 22.7-1.6 0.4-3.2 0.6-4.8 0.6z m-611.1-0.1c-1.6 0-3.1-0.2-4.7-0.6-10-2.6-15.9-12.8-13.3-22.7 45.1-172.3 200.8-275.2 325.3-275.2 10.3 0 18.6 8.3 18.6 18.6s-8.3 18.6-18.6 18.6c-110.4 0-248.8 92.5-289.3 247.4-2.2 8.3-9.7 13.9-18 13.9zM511.1 557.9c-12.8 0-25.6-1.4-38.1-4.1-24.2-5.3-46.6-15.5-66.7-30.2-4.1-3-5-8.9-2-13 3.1-4.1 8.9-5 13-2 17.9 13.2 38 22.3 59.7 27 21.8 4.8 44.9 4.9 66.8 0.3 6.7-1.4 13.4-3.3 19.8-5.5 39.2-13.8 72.1-43.2 90.2-80.7 2.2-4.6 7.8-6.6 12.4-4.3 4.6 2.2 6.6 7.8 4.3 12.4-20.3 41.9-57 74.8-100.8 90.2-7.2 2.5-14.7 4.6-22.2 6.2-11.9 2.4-24.1 3.7-36.4 3.7z" fill="#dbdbdb" p-id="1667"></path><path d="M520.4 697.6c-174.7 0-316.8-142.1-316.8-316.8S345.7 63.9 520.4 63.9 837.2 206 837.2 380.7s-142 316.9-316.8 316.9z m0-596.4c-154.2 0-279.6 125.4-279.6 279.6s125.4 279.6 279.6 279.6S800 534.9 800 380.8 674.6 101.2 520.4 101.2z" fill="#dbdbdb" p-id="1668"></path></svg>