<?xml version="1.0" standalone="no"?><!DOCTYPE svg PUBLIC "-//W3C//DTD SVG 1.1//EN" "http://www.w3.org/Graphics/SVG/1.1/DTD/svg11.dtd"><svg t="1548134306688" class="icon" style="" viewBox="0 0 1024 1024" version="1.1" xmlns="http://www.w3.org/2000/svg" p-id="1336" xmlns:xlink="http://www.w3.org/1999/xlink" width="200" height="200"><defs><style type="text/css"></style></defs><path d="M566.8 843.6H459.2c-5 0-9-4-9-9s4-9 9-9h107.5c5 0 9 4 9 9s-4 9-8.9 9zM315.8 467.2c-1.7 0-3.4-0.5-5-1.5-4.1-2.7-5.2-8.3-2.5-12.4l143.4-215.1c2.8-4.1 8.3-5.2 12.4-2.5s5.2 8.3 2.5 12.4L323.3 463.2c-1.7 2.6-4.6 4-7.5 4zM297.9 341.8c-1.6 0-3.2-0.4-4.6-1.3-4.3-2.5-5.6-8.1-3.1-12.3l53.8-89.6c2.6-4.2 8.1-5.6 12.3-3.1 4.3 2.5 5.6 8.1 3.1 12.3l-53.8 89.6c-1.7 2.8-4.7 4.4-7.7 4.4zM835.6 780.9H190.4c-9.9 0-17.9-8-17.9-17.9s8-17.9 17.9-17.9h645.3c9.9 0 17.9 8 17.9 17.9s-8.1 17.9-18 17.9zM835.6 162.5H190.4c-5 0-9-4-9-9s4-9 9-9h645.3c5 0 9 4 9 9-0.1 5-4.1 9-9.1 9z" fill="#dbdbdb" p-id="1337"></path><path d="M763.9 960.1H262.1c-49.4 0-89.6-40.2-89.6-89.6v-717c0-49.4 40.2-89.6 89.6-89.6H764c49.4 0 89.6 40.2 89.6 89.6v717c0 49.4-40.2 89.6-89.7 89.6zM262.1 99.8c-29.7 0-53.8 24.1-53.8 53.8v717c0 29.7 24.1 53.8 53.8 53.8H764c29.7 0 53.8-24.1 53.8-53.8v-717c0-29.7-24.1-53.8-53.8-53.8H262.1z" fill="#dbdbdb" p-id="1338"></path></svg>